<?xml version="1.0" encoding="UTF-8" standalone="no"?><!DOCTYPE score-partwise PUBLIC "-//Recordare//DTD MusicXML 3.1 Partwise//EN" "http://www.musicxml.org/dtds/partwise.dtd"><score-partwise version="3.1"><work><work-title>bella ciao sax alto</work-title></work><identification><rights>have fun</rights><encoding><software>Flat</software><encoding-date>2021-05-22</encoding-date></encoding><source>https://flat.io/score/5c127af0944cf47aaa6d7160-bella-ciao-sax-alto</source>   <miscellaneous>
                    <miscellaneous-field name="download-source">Downloaded on https://www.playthatsheet.com</miscellaneous-field>
                </miscellaneous>
            </identification><defaults><scaling><millimeters>7</millimeters><tenths>40</tenths></scaling><page-layout><page-height>1697.142857142857</page-height><page-width>1200</page-width><page-margins type="both"><left-margin>98.28571428571429</left-margin><right-margin>98.28571428571429</right-margin><top-margin>98.28571428571429</top-margin><bottom-margin>98.28571428571429</bottom-margin></page-margins></page-layout><system-layout><system-distance>115.2</system-distance></system-layout><staff-layout><staff-distance>72.57142857142857</staff-distance></staff-layout></defaults><credit><credit-type>title</credit-type><credit-words>bella ciao sax alto</credit-words></credit><part-list><score-part id="P1"><part-name>Alto Saxophone</part-name><part-abbreviation>A. Sax.</part-abbreviation><score-instrument id="P1-I1"><instrument-name>Alto Saxophone</instrument-name></score-instrument><midi-instrument id="P1-I1"><midi-channel>1</midi-channel><midi-program>66</midi-program><volume>100</volume></midi-instrument></score-part></part-list><part id="P1"><measure number="1"><attributes><divisions>2</divisions><key><fifths>0</fifths></key><time><beats>4</beats><beat-type>4</beat-type></time><clef><sign>G</sign><line>2</line></clef><staff-details><staff-lines>5</staff-lines></staff-details><transpose><diatonic>-5</diatonic><chromatic>-9</chromatic></transpose></attributes><sound/><sound tempo="80"/><direction placement="above"><direction-type><metronome><beat-unit>quarter</beat-unit><per-minute>80</per-minute></metronome></direction-type><staff>1</staff></direction><note><rest/><duration>4</duration><voice>1</voice><type>half</type><staff>1</staff></note><note><rest/><duration>1</duration><voice>1</voice><type>eighth</type><staff>1</staff></note><note><pitch><step>E</step><octave>4</octave></pitch><duration>1</duration><voice>1</voice><type>eighth</type><staff>1</staff></note><note><pitch><step>A</step><octave>4</octave></pitch><duration>1</duration><voice>1</voice><type>eighth</type><staff>1</staff><beam number="1">begin</beam></note><note><pitch><step>B</step><octave>4</octave></pitch><duration>1</duration><voice>1</voice><type>eighth</type><staff>1</staff><beam number="1">end</beam></note></measure><measure number="2"><attributes/><note><pitch><step>C</step><octave>5</octave></pitch><duration>1</duration><voice>1</voice><type>eighth</type><staff>1</staff><beam number="1">begin</beam></note><note><pitch><step>A</step><octave>4</octave></pitch><duration>1</duration><voice>1</voice><type>eighth</type><staff>1</staff><beam number="1">end</beam></note><note><rest/><duration>2</duration><voice>1</voice><type>quarter</type><staff>1</staff></note><note><rest/><duration>1</duration><voice>1</voice><type>eighth</type><staff>1</staff></note><note><pitch><step>E</step><octave>4</octave></pitch><duration>1</duration><voice>1</voice><type>eighth</type><staff>1</staff></note><note><pitch><step>A</step><octave>4</octave></pitch><duration>1</duration><voice>1</voice><type>eighth</type><staff>1</staff><beam number="1">begin</beam></note><note><pitch><step>B</step><octave>4</octave></pitch><duration>1</duration><voice>1</voice><type>eighth</type><staff>1</staff><beam number="1">end</beam></note></measure><measure number="3"><attributes/><note><pitch><step>C</step><octave>5</octave></pitch><duration>1</duration><voice>1</voice><type>eighth</type><staff>1</staff><beam number="1">begin</beam></note><note><pitch><step>A</step><octave>4</octave></pitch><duration>1</duration><voice>1</voice><type>eighth</type><staff>1</staff><beam number="1">end</beam></note><note><rest/><duration>2</duration><voice>1</voice><type>quarter</type><staff>1</staff></note><note><rest/><duration>1</duration><voice>1</voice><type>eighth</type><staff>1</staff></note><note><pitch><step>E</step><octave>4</octave></pitch><duration>1</duration><voice>1</voice><type>eighth</type><staff>1</staff></note><note><pitch><step>A</step><octave>4</octave></pitch><duration>1</duration><voice>1</voice><type>eighth</type><staff>1</staff><beam number="1">begin</beam></note><note><pitch><step>B</step><octave>4</octave></pitch><duration>1</duration><voice>1</voice><type>eighth</type><staff>1</staff><beam number="1">end</beam></note></measure><measure number="4"><attributes/><note><pitch><step>C</step><octave>5</octave></pitch><duration>2</duration><voice>1</voice><type>quarter</type><staff>1</staff></note><note><pitch><step>B</step><octave>4</octave></pitch><duration>1</duration><voice>1</voice><type>eighth</type><staff>1</staff><beam number="1">begin</beam></note><note><pitch><step>A</step><octave>4</octave></pitch><duration>1</duration><voice>1</voice><type>eighth</type><staff>1</staff><beam number="1">end</beam></note><note><pitch><step>C</step><octave>5</octave></pitch><duration>2</duration><voice>1</voice><type>quarter</type><staff>1</staff></note><note><pitch><step>B</step><octave>4</octave></pitch><duration>1</duration><voice>1</voice><type>eighth</type><staff>1</staff><beam number="1">begin</beam></note><note><pitch><step>A</step><octave>4</octave></pitch><duration>1</duration><voice>1</voice><type>eighth</type><staff>1</staff><beam number="1">end</beam></note></measure><measure number="5"><attributes/><note><pitch><step>E</step><octave>5</octave></pitch><duration>2</duration><voice>1</voice><type>quarter</type><staff>1</staff></note><note><pitch><step>E</step><octave>5</octave></pitch><duration>2</duration><voice>1</voice><type>quarter</type><staff>1</staff></note><note><pitch><step>E</step><octave>5</octave></pitch><duration>1</duration><voice>1</voice><type>eighth</type><staff>1</staff><beam number="1">begin</beam></note><note><pitch><step>E</step><octave>5</octave></pitch><duration>1</duration><voice>1</voice><type>eighth</type><staff>1</staff><beam number="1">end</beam></note><note><pitch><step>D</step><octave>5</octave></pitch><duration>1</duration><voice>1</voice><type>eighth</type><staff>1</staff><beam number="1">begin</beam></note><note><pitch><step>E</step><octave>5</octave></pitch><duration>1</duration><voice>1</voice><type>eighth</type><staff>1</staff><beam number="1">end</beam></note></measure><measure number="6"><attributes/><note><pitch><step>F</step><octave>5</octave></pitch><duration>1</duration><voice>1</voice><type>eighth</type><staff>1</staff><beam number="1">begin</beam></note><note><pitch><step>F</step><octave>5</octave></pitch><duration>1</duration><voice>1</voice><type>eighth</type><staff>1</staff><beam number="1">end</beam></note><note><rest/><duration>2</duration><voice>1</voice><type>quarter</type><staff>1</staff></note><note><rest/><duration>1</duration><voice>1</voice><type>eighth</type><staff>1</staff></note><note><pitch><step>F</step><octave>5</octave></pitch><duration>1</duration><voice>1</voice><type>eighth</type><staff>1</staff></note><note><pitch><step>E</step><octave>5</octave></pitch><duration>1</duration><voice>1</voice><type>eighth</type><staff>1</staff><beam number="1">begin</beam></note><note><pitch><step>D</step><octave>5</octave></pitch><duration>1</duration><voice>1</voice><type>eighth</type><staff>1</staff><beam number="1">end</beam></note></measure><measure number="7"><attributes/><note><pitch><step>F</step><octave>5</octave></pitch><duration>1</duration><voice>1</voice><type>eighth</type><staff>1</staff><beam number="1">begin</beam></note><note><pitch><step>E</step><octave>5</octave></pitch><duration>1</duration><voice>1</voice><type>eighth</type><staff>1</staff><beam number="1">end</beam></note><note><rest/><duration>2</duration><voice>1</voice><type>quarter</type><staff>1</staff></note><note><rest/><duration>1</duration><voice>1</voice><type>eighth</type><staff>1</staff></note><note><pitch><step>E</step><octave>5</octave></pitch><duration>1</duration><voice>1</voice><type>eighth</type><staff>1</staff></note><note><pitch><step>D</step><octave>5</octave></pitch><duration>1</duration><voice>1</voice><type>eighth</type><staff>1</staff><beam number="1">begin</beam></note><note><pitch><step>C</step><octave>5</octave></pitch><duration>1</duration><voice>1</voice><type>eighth</type><staff>1</staff><beam number="1">end</beam></note></measure><measure number="8"><attributes/><note><pitch><step>B</step><octave>4</octave></pitch><duration>2</duration><voice>1</voice><type>quarter</type><staff>1</staff></note><note><pitch><step>E</step><octave>5</octave></pitch><duration>2</duration><voice>1</voice><type>quarter</type><staff>1</staff></note><note><pitch><step>C</step><octave>5</octave></pitch><duration>2</duration><voice>1</voice><type>quarter</type><staff>1</staff></note><note><pitch><step>B</step><octave>4</octave></pitch><duration>2</duration><voice>1</voice><type>quarter</type><staff>1</staff></note></measure><measure number="9"><attributes/><sound tempo="110"/><direction placement="above"><direction-type><metronome><beat-unit>quarter</beat-unit><per-minute>110</per-minute></metronome></direction-type><staff>1</staff></direction><note><pitch><step>A</step><octave>4</octave></pitch><duration>2</duration><voice>1</voice><type>quarter</type><staff>1</staff></note><note><rest/><duration>2</duration><voice>1</voice><type>quarter</type><staff>1</staff></note><note><rest/><duration>1</duration><voice>1</voice><type>eighth</type><staff>1</staff></note><note><pitch><step>E</step><octave>4</octave></pitch><duration>1</duration><voice>1</voice><type>eighth</type><staff>1</staff></note><note><pitch><step>A</step><octave>4</octave></pitch><duration>1</duration><voice>1</voice><type>eighth</type><staff>1</staff><beam number="1">begin</beam></note><note><pitch><step>B</step><octave>4</octave></pitch><duration>1</duration><voice>1</voice><type>eighth</type><staff>1</staff><beam number="1">end</beam></note></measure><measure number="10"><attributes/><note><pitch><step>C</step><octave>5</octave></pitch><duration>1</duration><voice>1</voice><type>eighth</type><staff>1</staff><beam number="1">begin</beam></note><note><pitch><step>A</step><octave>4</octave></pitch><duration>1</duration><voice>1</voice><type>eighth</type><staff>1</staff><beam number="1">end</beam></note><note><rest/><duration>2</duration><voice>1</voice><type>quarter</type><staff>1</staff></note><note><rest/><duration>1</duration><voice>1</voice><type>eighth</type><staff>1</staff></note><note><pitch><step>E</step><octave>4</octave></pitch><duration>1</duration><voice>1</voice><type>eighth</type><staff>1</staff></note><note><pitch><step>A</step><octave>4</octave></pitch><duration>1</duration><voice>1</voice><type>eighth</type><staff>1</staff><beam number="1">begin</beam></note><note><pitch><step>B</step><octave>4</octave></pitch><duration>1</duration><voice>1</voice><type>eighth</type><staff>1</staff><beam number="1">end</beam></note></measure><measure number="11"><attributes/><note><pitch><step>C</step><octave>5</octave></pitch><duration>1</duration><voice>1</voice><type>eighth</type><staff>1</staff><beam number="1">begin</beam></note><note><pitch><step>A</step><octave>4</octave></pitch><duration>1</duration><voice>1</voice><type>eighth</type><staff>1</staff><beam number="1">end</beam></note><note><rest/><duration>2</duration><voice>1</voice><type>quarter</type><staff>1</staff></note><note><rest/><duration>1</duration><voice>1</voice><type>eighth</type><staff>1</staff></note><note><pitch><step>E</step><octave>4</octave></pitch><duration>1</duration><voice>1</voice><type>eighth</type><staff>1</staff></note><note><pitch><step>A</step><octave>4</octave></pitch><duration>1</duration><voice>1</voice><type>eighth</type><staff>1</staff><beam number="1">begin</beam></note><note><pitch><step>B</step><octave>4</octave></pitch><duration>1</duration><voice>1</voice><type>eighth</type><staff>1</staff><beam number="1">end</beam></note></measure><measure number="12"><attributes/><note><pitch><step>C</step><octave>5</octave></pitch><duration>2</duration><voice>1</voice><type>quarter</type><staff>1</staff></note><note><pitch><step>B</step><octave>4</octave></pitch><duration>1</duration><voice>1</voice><type>eighth</type><staff>1</staff><beam number="1">begin</beam></note><note><pitch><step>A</step><octave>4</octave></pitch><duration>1</duration><voice>1</voice><type>eighth</type><staff>1</staff><beam number="1">end</beam></note><note><pitch><step>C</step><octave>5</octave></pitch><duration>2</duration><voice>1</voice><type>quarter</type><staff>1</staff></note><note><pitch><step>B</step><octave>4</octave></pitch><duration>1</duration><voice>1</voice><type>eighth</type><staff>1</staff><beam number="1">begin</beam></note><note><pitch><step>A</step><octave>4</octave></pitch><duration>1</duration><voice>1</voice><type>eighth</type><staff>1</staff><beam number="1">end</beam></note></measure><measure number="13"><attributes/><note><pitch><step>E</step><octave>5</octave></pitch><duration>2</duration><voice>1</voice><type>quarter</type><staff>1</staff></note><note><pitch><step>E</step><octave>5</octave></pitch><duration>2</duration><voice>1</voice><type>quarter</type><staff>1</staff></note><note><pitch><step>E</step><octave>5</octave></pitch><duration>1</duration><voice>1</voice><type>eighth</type><staff>1</staff><beam number="1">begin</beam></note><note><pitch><step>E</step><octave>5</octave></pitch><duration>1</duration><voice>1</voice><type>eighth</type><staff>1</staff><beam number="1">end</beam></note><note><pitch><step>D</step><octave>5</octave></pitch><duration>1</duration><voice>1</voice><type>eighth</type><staff>1</staff><beam number="1">begin</beam></note><note><pitch><step>E</step><octave>5</octave></pitch><duration>1</duration><voice>1</voice><type>eighth</type><staff>1</staff><beam number="1">end</beam></note></measure><measure number="14"><attributes/><note><pitch><step>F</step><octave>5</octave></pitch><duration>1</duration><voice>1</voice><type>eighth</type><staff>1</staff><beam number="1">begin</beam></note><note><pitch><step>F</step><octave>5</octave></pitch><duration>1</duration><voice>1</voice><type>eighth</type><staff>1</staff><beam number="1">end</beam></note><note><rest/><duration>2</duration><voice>1</voice><type>quarter</type><staff>1</staff></note><note><rest/><duration>1</duration><voice>1</voice><type>eighth</type><staff>1</staff></note><note><pitch><step>F</step><octave>5</octave></pitch><duration>1</duration><voice>1</voice><type>eighth</type><staff>1</staff></note><note><pitch><step>E</step><octave>5</octave></pitch><duration>1</duration><voice>1</voice><type>eighth</type><staff>1</staff><beam number="1">begin</beam></note><note><pitch><step>D</step><octave>5</octave></pitch><duration>1</duration><voice>1</voice><type>eighth</type><staff>1</staff><beam number="1">end</beam></note></measure><measure number="15"><attributes/><note><pitch><step>F</step><octave>5</octave></pitch><duration>1</duration><voice>1</voice><type>eighth</type><staff>1</staff><beam number="1">begin</beam></note><note><pitch><step>E</step><octave>5</octave></pitch><duration>1</duration><voice>1</voice><type>eighth</type><staff>1</staff><beam number="1">end</beam></note><note><rest/><duration>2</duration><voice>1</voice><type>quarter</type><staff>1</staff></note><note><rest/><duration>1</duration><voice>1</voice><type>eighth</type><staff>1</staff></note><note><pitch><step>E</step><octave>5</octave></pitch><duration>1</duration><voice>1</voice><type>eighth</type><staff>1</staff></note><note><pitch><step>D</step><octave>5</octave></pitch><duration>1</duration><voice>1</voice><type>eighth</type><staff>1</staff><beam number="1">begin</beam></note><note><pitch><step>C</step><octave>5</octave></pitch><duration>1</duration><voice>1</voice><type>eighth</type><staff>1</staff><beam number="1">end</beam></note></measure><measure number="16"><attributes/><note><pitch><step>B</step><octave>4</octave></pitch><duration>2</duration><voice>1</voice><type>quarter</type><staff>1</staff></note><note><pitch><step>E</step><octave>5</octave></pitch><duration>2</duration><voice>1</voice><type>quarter</type><staff>1</staff></note><note><pitch><step>C</step><octave>5</octave></pitch><duration>2</duration><voice>1</voice><type>quarter</type><staff>1</staff></note><note><pitch><step>B</step><octave>4</octave></pitch><duration>2</duration><voice>1</voice><type>quarter</type><staff>1</staff></note></measure><measure number="17"><attributes/><sound tempo="140"/><direction placement="above"><direction-type><metronome><beat-unit>quarter</beat-unit><per-minute>140</per-minute></metronome></direction-type><staff>1</staff></direction><note><pitch><step>A</step><octave>4</octave></pitch><duration>2</duration><voice>1</voice><type>quarter</type><staff>1</staff></note><note><rest/><duration>2</duration><voice>1</voice><type>quarter</type><staff>1</staff></note><note><rest/><duration>1</duration><voice>1</voice><type>eighth</type><staff>1</staff></note><note><pitch><step>E</step><octave>4</octave></pitch><duration>1</duration><voice>1</voice><type>eighth</type><staff>1</staff></note><note><pitch><step>A</step><octave>4</octave></pitch><duration>1</duration><voice>1</voice><type>eighth</type><staff>1</staff><beam number="1">begin</beam></note><note><pitch><step>B</step><octave>4</octave></pitch><duration>1</duration><voice>1</voice><type>eighth</type><staff>1</staff><beam number="1">end</beam></note></measure><measure number="18"><attributes/><note><pitch><step>C</step><octave>5</octave></pitch><duration>1</duration><voice>1</voice><type>eighth</type><staff>1</staff><beam number="1">begin</beam></note><note><pitch><step>A</step><octave>4</octave></pitch><duration>1</duration><voice>1</voice><type>eighth</type><staff>1</staff><beam number="1">end</beam></note><note><rest/><duration>2</duration><voice>1</voice><type>quarter</type><staff>1</staff></note><note><rest/><duration>1</duration><voice>1</voice><type>eighth</type><staff>1</staff></note><note><pitch><step>E</step><octave>4</octave></pitch><duration>1</duration><voice>1</voice><type>eighth</type><staff>1</staff></note><note><pitch><step>A</step><octave>4</octave></pitch><duration>1</duration><voice>1</voice><type>eighth</type><staff>1</staff><beam number="1">begin</beam></note><note><pitch><step>B</step><octave>4</octave></pitch><duration>1</duration><voice>1</voice><type>eighth</type><staff>1</staff><beam number="1">end</beam></note></measure><measure number="19"><attributes/><note><pitch><step>C</step><octave>5</octave></pitch><duration>1</duration><voice>1</voice><type>eighth</type><staff>1</staff><beam number="1">begin</beam></note><note><pitch><step>A</step><octave>4</octave></pitch><duration>1</duration><voice>1</voice><type>eighth</type><staff>1</staff><beam number="1">end</beam></note><note><rest/><duration>2</duration><voice>1</voice><type>quarter</type><staff>1</staff></note><note><rest/><duration>1</duration><voice>1</voice><type>eighth</type><staff>1</staff></note><note><pitch><step>E</step><octave>4</octave></pitch><duration>1</duration><voice>1</voice><type>eighth</type><staff>1</staff></note><note><pitch><step>A</step><octave>4</octave></pitch><duration>1</duration><voice>1</voice><type>eighth</type><staff>1</staff><beam number="1">begin</beam></note><note><pitch><step>B</step><octave>4</octave></pitch><duration>1</duration><voice>1</voice><type>eighth</type><staff>1</staff><beam number="1">end</beam></note></measure><measure number="20"><attributes/><note><pitch><step>C</step><octave>5</octave></pitch><duration>2</duration><voice>1</voice><type>quarter</type><staff>1</staff></note><note><pitch><step>B</step><octave>4</octave></pitch><duration>1</duration><voice>1</voice><type>eighth</type><staff>1</staff><beam number="1">begin</beam></note><note><pitch><step>A</step><octave>4</octave></pitch><duration>1</duration><voice>1</voice><type>eighth</type><staff>1</staff><beam number="1">end</beam></note><note><pitch><step>C</step><octave>5</octave></pitch><duration>2</duration><voice>1</voice><type>quarter</type><staff>1</staff></note><note><pitch><step>B</step><octave>4</octave></pitch><duration>1</duration><voice>1</voice><type>eighth</type><staff>1</staff><beam number="1">begin</beam></note><note><pitch><step>A</step><octave>4</octave></pitch><duration>1</duration><voice>1</voice><type>eighth</type><staff>1</staff><beam number="1">end</beam></note></measure><measure number="21"><attributes/><note><pitch><step>E</step><octave>5</octave></pitch><duration>2</duration><voice>1</voice><type>quarter</type><staff>1</staff></note><note><pitch><step>E</step><octave>5</octave></pitch><duration>2</duration><voice>1</voice><type>quarter</type><staff>1</staff></note><note><pitch><step>E</step><octave>5</octave></pitch><duration>1</duration><voice>1</voice><type>eighth</type><staff>1</staff><beam number="1">begin</beam></note><note><pitch><step>E</step><octave>5</octave></pitch><duration>1</duration><voice>1</voice><type>eighth</type><staff>1</staff><beam number="1">end</beam></note><note><pitch><step>D</step><octave>5</octave></pitch><duration>1</duration><voice>1</voice><type>eighth</type><staff>1</staff><beam number="1">begin</beam></note><note><pitch><step>E</step><octave>5</octave></pitch><duration>1</duration><voice>1</voice><type>eighth</type><staff>1</staff><beam number="1">end</beam></note></measure><measure number="22"><attributes/><note><pitch><step>F</step><octave>5</octave></pitch><duration>1</duration><voice>1</voice><type>eighth</type><staff>1</staff><beam number="1">begin</beam></note><note><pitch><step>F</step><octave>5</octave></pitch><duration>1</duration><voice>1</voice><type>eighth</type><staff>1</staff><beam number="1">end</beam></note><note><rest/><duration>2</duration><voice>1</voice><type>quarter</type><staff>1</staff></note><note><rest/><duration>1</duration><voice>1</voice><type>eighth</type><staff>1</staff></note><note><pitch><step>F</step><octave>5</octave></pitch><duration>1</duration><voice>1</voice><type>eighth</type><staff>1</staff></note><note><pitch><step>E</step><octave>5</octave></pitch><duration>1</duration><voice>1</voice><type>eighth</type><staff>1</staff><beam number="1">begin</beam></note><note><pitch><step>D</step><octave>5</octave></pitch><duration>1</duration><voice>1</voice><type>eighth</type><staff>1</staff><beam number="1">end</beam></note></measure><measure number="23"><attributes/><note><pitch><step>F</step><octave>5</octave></pitch><duration>1</duration><voice>1</voice><type>eighth</type><staff>1</staff><beam number="1">begin</beam></note><note><pitch><step>E</step><octave>5</octave></pitch><duration>1</duration><voice>1</voice><type>eighth</type><staff>1</staff><beam number="1">end</beam></note><note><rest/><duration>2</duration><voice>1</voice><type>quarter</type><staff>1</staff></note><note><rest/><duration>1</duration><voice>1</voice><type>eighth</type><staff>1</staff></note><note><pitch><step>E</step><octave>5</octave></pitch><duration>1</duration><voice>1</voice><type>eighth</type><staff>1</staff></note><note><pitch><step>D</step><octave>5</octave></pitch><duration>1</duration><voice>1</voice><type>eighth</type><staff>1</staff><beam number="1">begin</beam></note><note><pitch><step>C</step><octave>5</octave></pitch><duration>1</duration><voice>1</voice><type>eighth</type><staff>1</staff><beam number="1">end</beam></note></measure><measure number="24"><attributes/><note><pitch><step>B</step><octave>4</octave></pitch><duration>2</duration><voice>1</voice><type>quarter</type><staff>1</staff></note><note><pitch><step>E</step><octave>5</octave></pitch><duration>2</duration><voice>1</voice><type>quarter</type><staff>1</staff></note><note><pitch><step>C</step><octave>5</octave></pitch><duration>2</duration><voice>1</voice><type>quarter</type><staff>1</staff></note><note><pitch><step>B</step><octave>4</octave></pitch><duration>2</duration><voice>1</voice><type>quarter</type><staff>1</staff></note></measure><measure number="25"><attributes/><note><pitch><step>A</step><octave>4</octave></pitch><duration>2</duration><voice>1</voice><type>quarter</type><staff>1</staff></note><note><rest/><duration>2</duration><voice>1</voice><type>quarter</type><staff>1</staff></note><note><rest/><duration>1</duration><voice>1</voice><type>eighth</type><staff>1</staff></note><note><pitch><step>D</step><octave>5</octave></pitch><duration>1</duration><voice>1</voice><type>eighth</type><staff>1</staff></note><note><pitch><step>D</step><octave>5</octave></pitch><duration>1</duration><voice>1</voice><type>eighth</type><staff>1</staff><beam number="1">begin</beam></note><note><pitch><step>E</step><octave>5</octave></pitch><duration>1</duration><voice>1</voice><type>eighth</type><staff>1</staff><beam number="1">end</beam></note></measure><measure number="26"><attributes/><note><pitch><step>F</step><octave>5</octave></pitch><duration>1</duration><voice>1</voice><type>eighth</type><staff>1</staff><beam number="1">begin</beam></note><note><pitch><step>F</step><octave>5</octave></pitch><duration>1</duration><voice>1</voice><type>eighth</type><staff>1</staff><beam number="1">end</beam></note><note><rest/><duration>2</duration><voice>1</voice><type>quarter</type><staff>1</staff></note><note><rest/><duration>1</duration><voice>1</voice><type>eighth</type><staff>1</staff></note><note><pitch><step>F</step><octave>5</octave></pitch><duration>1</duration><voice>1</voice><type>eighth</type><staff>1</staff></note><note><pitch><step>E</step><octave>5</octave></pitch><duration>1</duration><voice>1</voice><type>eighth</type><staff>1</staff><beam number="1">begin</beam></note><note><pitch><step>D</step><octave>5</octave></pitch><duration>1</duration><voice>1</voice><type>eighth</type><staff>1</staff><beam number="1">end</beam></note></measure><measure number="27"><attributes/><note><pitch><step>F</step><octave>5</octave></pitch><duration>1</duration><voice>1</voice><type>eighth</type><staff>1</staff><beam number="1">begin</beam></note><note><pitch><step>E</step><octave>5</octave></pitch><duration>1</duration><voice>1</voice><type>eighth</type><staff>1</staff><beam number="1">end</beam></note><note><rest/><duration>2</duration><voice>1</voice><type>quarter</type><staff>1</staff></note><note><rest/><duration>1</duration><voice>1</voice><type>eighth</type><staff>1</staff></note><note><pitch><step>E</step><octave>5</octave></pitch><duration>1</duration><voice>1</voice><type>eighth</type><staff>1</staff></note><note><pitch><step>D</step><octave>5</octave></pitch><duration>1</duration><voice>1</voice><type>eighth</type><staff>1</staff><beam number="1">begin</beam></note><note><pitch><step>C</step><octave>5</octave></pitch><duration>1</duration><voice>1</voice><type>eighth</type><staff>1</staff><beam number="1">end</beam></note></measure><measure number="28"><attributes/><sound tempo="110"/><direction placement="above"><direction-type><metronome><beat-unit>quarter</beat-unit><per-minute>110</per-minute></metronome></direction-type><staff>1</staff></direction><note><pitch><step>B</step><octave>4</octave></pitch><duration>2</duration><voice>1</voice><type>quarter</type><staff>1</staff></note><note><pitch><step>E</step><octave>5</octave></pitch><duration>2</duration><voice>1</voice><type>quarter</type><staff>1</staff></note><note><pitch><step>C</step><octave>5</octave></pitch><duration>2</duration><voice>1</voice><type>quarter</type><staff>1</staff></note><note><pitch><step>B</step><octave>4</octave></pitch><duration>2</duration><voice>1</voice><type>quarter</type><staff>1</staff></note></measure><measure number="29"><attributes/><note><pitch><step>A</step><octave>4</octave></pitch><duration>2</duration><voice>1</voice><type>quarter</type><staff>1</staff><notations><fermata/></notations></note><note><rest/><duration>2</duration><voice>1</voice><type>quarter</type><staff>1</staff></note><note><rest/><duration>4</duration><voice>1</voice><type>half</type><staff>1</staff></note><barline location="right"><bar-style>light-heavy</bar-style></barline></measure></part></score-partwise>